<mxfile host="app.diagrams.net" modified="2023-05-11T14:37:20.573Z" agent="Mozilla/5.0 (Windows NT 10.0; Win64; x64) AppleWebKit/537.36 (KHTML, like Gecko) Chrome/112.0.0.0 Safari/537.36" etag="nQj1c9Tx7g_3ISspsgAo" version="21.2.9" type="github">
  <diagram id="C5RBs43oDa-KdzZeNtuy" name="Page-1">
    <mxGraphModel dx="1434" dy="697" grid="1" gridSize="10" guides="1" tooltips="1" connect="1" arrows="1" fold="1" page="1" pageScale="1" pageWidth="827" pageHeight="1169" math="0" shadow="0">
      <root>
        <mxCell id="WIyWlLk6GJQsqaUBKTNV-0" />
        <mxCell id="WIyWlLk6GJQsqaUBKTNV-1" parent="WIyWlLk6GJQsqaUBKTNV-0" />
        <mxCell id="3mXv7CCgkB3wUe_tkJmY-1" value="" style="whiteSpace=wrap;html=1;aspect=fixed;" vertex="1" parent="WIyWlLk6GJQsqaUBKTNV-1">
          <mxGeometry x="130" y="110" width="440" height="440" as="geometry" />
        </mxCell>
        <mxCell id="3mXv7CCgkB3wUe_tkJmY-2" value="if поставщик получает список необходимых материалов" style="text;html=1;strokeColor=none;fillColor=none;align=left;verticalAlign=middle;whiteSpace=wrap;rounded=0;" vertex="1" parent="WIyWlLk6GJQsqaUBKTNV-1">
          <mxGeometry x="130" y="130" width="530" height="30" as="geometry" />
        </mxCell>
        <mxCell id="3mXv7CCgkB3wUe_tkJmY-3" value="then" style="text;html=1;strokeColor=none;fillColor=none;align=left;verticalAlign=middle;whiteSpace=wrap;rounded=0;" vertex="1" parent="WIyWlLk6GJQsqaUBKTNV-1">
          <mxGeometry x="130" y="160" width="530" height="30" as="geometry" />
        </mxCell>
        <mxCell id="3mXv7CCgkB3wUe_tkJmY-5" value="" style="whiteSpace=wrap;html=1;aspect=fixed;" vertex="1" parent="WIyWlLk6GJQsqaUBKTNV-1">
          <mxGeometry x="180" y="160" width="390" height="390" as="geometry" />
        </mxCell>
        <mxCell id="3mXv7CCgkB3wUe_tkJmY-6" value="while заказчик не получит необходимый товар" style="text;html=1;strokeColor=none;fillColor=none;align=left;verticalAlign=middle;whiteSpace=wrap;rounded=0;" vertex="1" parent="WIyWlLk6GJQsqaUBKTNV-1">
          <mxGeometry x="180" y="160" width="530" height="30" as="geometry" />
        </mxCell>
        <mxCell id="3mXv7CCgkB3wUe_tkJmY-7" value="do" style="text;html=1;strokeColor=none;fillColor=none;align=left;verticalAlign=middle;whiteSpace=wrap;rounded=0;" vertex="1" parent="WIyWlLk6GJQsqaUBKTNV-1">
          <mxGeometry x="180" y="190" width="530" height="30" as="geometry" />
        </mxCell>
        <mxCell id="3mXv7CCgkB3wUe_tkJmY-10" value="while не будет заключён договор на поставку товара" style="text;html=1;strokeColor=none;fillColor=none;align=left;verticalAlign=middle;whiteSpace=wrap;rounded=0;" vertex="1" parent="WIyWlLk6GJQsqaUBKTNV-1">
          <mxGeometry x="215" y="200" width="530" height="30" as="geometry" />
        </mxCell>
        <mxCell id="3mXv7CCgkB3wUe_tkJmY-14" value="do" style="text;html=1;strokeColor=none;fillColor=none;align=left;verticalAlign=middle;whiteSpace=wrap;rounded=0;" vertex="1" parent="WIyWlLk6GJQsqaUBKTNV-1">
          <mxGeometry x="274" y="450" width="100" height="30" as="geometry" />
        </mxCell>
        <mxCell id="3mXv7CCgkB3wUe_tkJmY-15" value="Обсуждение между заказчиком и поставщиком условий поставки товара" style="text;html=1;strokeColor=none;fillColor=none;align=left;verticalAlign=middle;whiteSpace=wrap;rounded=0;" vertex="1" parent="WIyWlLk6GJQsqaUBKTNV-1">
          <mxGeometry x="250" y="220" width="360" height="30" as="geometry" />
        </mxCell>
        <mxCell id="3mXv7CCgkB3wUe_tkJmY-20" value="if обе стороны пришли к единому соглашению&lt;br&gt;then" style="text;html=1;strokeColor=none;fillColor=none;align=left;verticalAlign=middle;whiteSpace=wrap;rounded=0;" vertex="1" parent="WIyWlLk6GJQsqaUBKTNV-1">
          <mxGeometry x="250" y="250" width="360" height="30" as="geometry" />
        </mxCell>
        <mxCell id="3mXv7CCgkB3wUe_tkJmY-22" value="" style="rounded=0;whiteSpace=wrap;html=1;fillColor=none;" vertex="1" parent="WIyWlLk6GJQsqaUBKTNV-1">
          <mxGeometry x="210" y="190" width="360" height="280" as="geometry" />
        </mxCell>
        <mxCell id="3mXv7CCgkB3wUe_tkJmY-24" value="Оформление договора на поставку товара" style="text;html=1;strokeColor=none;fillColor=none;align=center;verticalAlign=middle;whiteSpace=wrap;rounded=0;" vertex="1" parent="WIyWlLk6GJQsqaUBKTNV-1">
          <mxGeometry x="280" y="270" width="320" height="30" as="geometry" />
        </mxCell>
        <mxCell id="3mXv7CCgkB3wUe_tkJmY-25" value="else" style="text;html=1;strokeColor=none;fillColor=none;align=center;verticalAlign=middle;whiteSpace=wrap;rounded=0;" vertex="1" parent="WIyWlLk6GJQsqaUBKTNV-1">
          <mxGeometry x="230" y="295" width="60" height="30" as="geometry" />
        </mxCell>
        <mxCell id="3mXv7CCgkB3wUe_tkJmY-27" value="Обсудить все спорные вопросы, внести корректировки и уточнения" style="text;html=1;strokeColor=none;fillColor=none;align=center;verticalAlign=middle;whiteSpace=wrap;rounded=0;" vertex="1" parent="WIyWlLk6GJQsqaUBKTNV-1">
          <mxGeometry x="280" y="300" width="270" height="45" as="geometry" />
        </mxCell>
        <mxCell id="3mXv7CCgkB3wUe_tkJmY-28" value="" style="rounded=0;whiteSpace=wrap;html=1;fillColor=none;" vertex="1" parent="WIyWlLk6GJQsqaUBKTNV-1">
          <mxGeometry x="250" y="220" width="320" height="30" as="geometry" />
        </mxCell>
        <mxCell id="3mXv7CCgkB3wUe_tkJmY-31" value="do" style="text;html=1;strokeColor=none;fillColor=none;align=left;verticalAlign=middle;whiteSpace=wrap;rounded=0;" vertex="1" parent="WIyWlLk6GJQsqaUBKTNV-1">
          <mxGeometry x="215" y="220" width="25" height="30" as="geometry" />
        </mxCell>
        <mxCell id="3mXv7CCgkB3wUe_tkJmY-32" value="" style="rounded=0;whiteSpace=wrap;html=1;fillColor=none;" vertex="1" parent="WIyWlLk6GJQsqaUBKTNV-1">
          <mxGeometry x="250" y="250" width="320" height="90" as="geometry" />
        </mxCell>
        <mxCell id="3mXv7CCgkB3wUe_tkJmY-33" value="" style="rounded=0;whiteSpace=wrap;html=1;fillColor=none;" vertex="1" parent="WIyWlLk6GJQsqaUBKTNV-1">
          <mxGeometry x="280" y="270" width="290" height="30" as="geometry" />
        </mxCell>
        <mxCell id="3mXv7CCgkB3wUe_tkJmY-34" value="" style="rounded=0;whiteSpace=wrap;html=1;fillColor=none;" vertex="1" parent="WIyWlLk6GJQsqaUBKTNV-1">
          <mxGeometry x="280" y="300" width="290" height="40" as="geometry" />
        </mxCell>
        <mxCell id="3mXv7CCgkB3wUe_tkJmY-35" value="" style="rounded=0;whiteSpace=wrap;html=1;fillColor=none;" vertex="1" parent="WIyWlLk6GJQsqaUBKTNV-1">
          <mxGeometry x="210" y="340" width="360" height="40" as="geometry" />
        </mxCell>
        <mxCell id="3mXv7CCgkB3wUe_tkJmY-36" value="Внесение заказчиком предоплаты" style="text;html=1;strokeColor=none;fillColor=none;align=center;verticalAlign=middle;whiteSpace=wrap;rounded=0;" vertex="1" parent="WIyWlLk6GJQsqaUBKTNV-1">
          <mxGeometry x="240" y="340" width="280" height="30" as="geometry" />
        </mxCell>
        <mxCell id="3mXv7CCgkB3wUe_tkJmY-37" value="" style="rounded=0;whiteSpace=wrap;html=1;" vertex="1" parent="WIyWlLk6GJQsqaUBKTNV-1">
          <mxGeometry x="210" y="380" width="360" height="30" as="geometry" />
        </mxCell>
        <mxCell id="3mXv7CCgkB3wUe_tkJmY-38" value="Погрузка согласованной порции товара&amp;nbsp;" style="text;html=1;strokeColor=none;fillColor=none;align=center;verticalAlign=middle;whiteSpace=wrap;rounded=0;" vertex="1" parent="WIyWlLk6GJQsqaUBKTNV-1">
          <mxGeometry x="224" y="380" width="326" height="30" as="geometry" />
        </mxCell>
        <mxCell id="3mXv7CCgkB3wUe_tkJmY-39" value="" style="rounded=0;whiteSpace=wrap;html=1;" vertex="1" parent="WIyWlLk6GJQsqaUBKTNV-1">
          <mxGeometry x="210" y="410" width="360" height="30" as="geometry" />
        </mxCell>
        <mxCell id="3mXv7CCgkB3wUe_tkJmY-40" value="Доставка товара согласно договору (способ доставки, её сроки)" style="text;html=1;strokeColor=none;fillColor=none;align=center;verticalAlign=middle;whiteSpace=wrap;rounded=0;" vertex="1" parent="WIyWlLk6GJQsqaUBKTNV-1">
          <mxGeometry x="246.25" y="410" width="297.5" height="30" as="geometry" />
        </mxCell>
        <mxCell id="3mXv7CCgkB3wUe_tkJmY-41" value="" style="rounded=0;whiteSpace=wrap;html=1;" vertex="1" parent="WIyWlLk6GJQsqaUBKTNV-1">
          <mxGeometry x="210" y="440" width="360" height="30" as="geometry" />
        </mxCell>
        <mxCell id="3mXv7CCgkB3wUe_tkJmY-42" value="Получение заказчиком товара" style="text;html=1;strokeColor=none;fillColor=none;align=center;verticalAlign=middle;whiteSpace=wrap;rounded=0;" vertex="1" parent="WIyWlLk6GJQsqaUBKTNV-1">
          <mxGeometry x="173.75" y="440" width="370" height="30" as="geometry" />
        </mxCell>
        <mxCell id="3mXv7CCgkB3wUe_tkJmY-43" value="" style="rounded=0;whiteSpace=wrap;html=1;" vertex="1" parent="WIyWlLk6GJQsqaUBKTNV-1">
          <mxGeometry x="180" y="470" width="390" height="80" as="geometry" />
        </mxCell>
        <mxCell id="3mXv7CCgkB3wUe_tkJmY-44" value="Фиксирование обеими сторонами выполнение договора (проставление подписей)" style="text;html=1;strokeColor=none;fillColor=none;align=center;verticalAlign=middle;whiteSpace=wrap;rounded=0;" vertex="1" parent="WIyWlLk6GJQsqaUBKTNV-1">
          <mxGeometry x="282" y="520" width="280" height="30" as="geometry" />
        </mxCell>
        <mxCell id="3mXv7CCgkB3wUe_tkJmY-46" value="Внесение заказчиком оставшейся суммы" style="text;html=1;strokeColor=none;fillColor=none;align=center;verticalAlign=middle;whiteSpace=wrap;rounded=0;" vertex="1" parent="WIyWlLk6GJQsqaUBKTNV-1">
          <mxGeometry x="282" y="490" width="296" height="30" as="geometry" />
        </mxCell>
        <mxCell id="3mXv7CCgkB3wUe_tkJmY-47" value="if у заказчика после получения товара нет вопросов к поставщику&lt;br&gt;&lt;div style=&quot;text-align: left;&quot;&gt;&lt;span style=&quot;background-color: initial;&quot;&gt;then&lt;/span&gt;&lt;/div&gt;" style="text;html=1;strokeColor=none;fillColor=none;align=center;verticalAlign=middle;whiteSpace=wrap;rounded=0;" vertex="1" parent="WIyWlLk6GJQsqaUBKTNV-1">
          <mxGeometry x="180" y="470" width="370" height="30" as="geometry" />
        </mxCell>
        <mxCell id="3mXv7CCgkB3wUe_tkJmY-48" value="" style="rounded=0;whiteSpace=wrap;html=1;fillColor=none;align=left;" vertex="1" parent="WIyWlLk6GJQsqaUBKTNV-1">
          <mxGeometry x="210" y="490" width="360" height="30" as="geometry" />
        </mxCell>
        <mxCell id="3mXv7CCgkB3wUe_tkJmY-49" value="" style="rounded=0;whiteSpace=wrap;html=1;fillColor=none;" vertex="1" parent="WIyWlLk6GJQsqaUBKTNV-1">
          <mxGeometry x="210" y="520" width="360" height="30" as="geometry" />
        </mxCell>
      </root>
    </mxGraphModel>
  </diagram>
</mxfile>
